# xmcd
#
# Track frame offsets:
#	150
#	11364
#	32667
#	46420
#	65030
#	78167
#	94766
#	108415
#	125146
#	141769
#	157115
#	173263
#	194427
#	209561
#
# Disc length: 3005 seconds
#
# Revision: 1
# Processed by: cddbd v1.5.2PL0 Copyright (c) Steve Scherf et al.
# Submitted via: EZCDAudioConverter 2.5.0.1
#
DISCID=be0bbb0e
DTITLE=Various Artist - Best of France
DYEAR=2015
DGENRE=
TTITLE0=Georges Moustaki - Le Meteque
TTITLE1=Mort Shuman - Papa tango charlie
TTITLE2=Dalida - Salma ya salama
TTITLE3=Enrico Macias - Melisa
TTITLE4=Serge Lama - Je t'aime a la folie
TTITLE5=Johnny Haliday - Pauvres Diables
TTITLE6=Georges Moustaki - Danse
TTITLE7=Jean Michel Caradec - Ile
TTITLE8=Serge Reggiani - Hotel des voyageurs
TTITLE9=Nana Mouskouri - Plaisir d' amour
TTITLE10=Jenifer - J' attends l' amour
TTITLE11=Florent Pagny - Savoir aimer
TTITLE12=Michel Delpech - Pour un flirt
TTITLE13=Jenifer - Au soleil
EXTD=
EXTT0=
EXTT1=
EXTT2=
EXTT3=
EXTT4=
EXTT5=
EXTT6=
EXTT7=
EXTT8=
EXTT9=
EXTT10=
EXTT11=
EXTT12=
EXTT13=
PLAYORDER=
